<?xml version="1.0" standalone="no"?>
<!DOCTYPE svg PUBLIC "-//W3C//DTD SVG 20010904//EN"
 "http://www.w3.org/TR/2001/REC-SVG-20010904/DTD/svg10.dtd">
<svg version="1.0" xmlns="http://www.w3.org/2000/svg"
 width="90.000000pt" height="90.000000pt" viewBox="0 0 90.000000 90.000000"
 preserveAspectRatio="xMidYMid meet">
<metadata>
Created by potrace 1.14, written by Peter Selinger 2001-2017
</metadata>
<g transform="translate(0.000000,90.000000) scale(0.100000,-0.100000)"
fill="#000000" stroke="none">
<path d="M516 738 c-104 -91 -133 -123 -158 -171 l-29 -59 -28 26 c-26 25 -28
30 -20 74 5 26 11 53 14 60 6 17 1 16 -114 -25 -110 -39 -116 -44 -136 -126
l-7 -27 42 15 c24 8 45 13 48 11 3 -4 -22 -89 -45 -152 -2 -6 18 -35 44 -64
26 -29 48 -56 48 -59 0 -3 -15 -35 -33 -71 -28 -54 -38 -66 -60 -68 -15 -1
-38 -13 -52 -27 l-25 -25 25 -1 c99 -5 145 -3 156 8 6 7 29 41 50 77 29 50 42
65 55 61 11 -4 27 4 43 22 24 26 29 27 110 25 79 -3 88 -5 118 -32 28 -26 40
-30 90 -30 54 0 59 -2 73 -30 20 -38 19 -50 -4 -50 -18 0 -60 -49 -44 -51 5
-1 40 -2 80 -4 70 -2 72 -1 81 24 7 21 3 43 -20 101 -32 81 -45 101 -62 99
-31 -4 -44 5 -70 48 -37 64 -35 72 12 64 4 0 16 -15 26 -31 17 -30 19 -31 92
-29 41 1 74 5 74 9 0 5 -21 51 -46 104 -34 72 -50 96 -65 96 -24 0 -24 0 10
-68 15 -31 32 -67 35 -79 7 -21 4 -23 -28 -23 -28 0 -38 6 -53 30 -16 28 -21
30 -79 30 -57 0 -64 -3 -82 -27 -14 -20 -38 -33 -80 -45 -33 -10 -66 -23 -74
-30 -43 -41 -51 -43 -27 -6 19 29 35 40 82 54 45 13 66 27 92 58 39 47 33 52
-44 38 -28 -5 -51 -8 -51 -6 0 2 31 21 69 44 54 32 74 51 96 91 15 28 25 52
22 55 -2 2 -42 -11 -87 -31 l-84 -35 35 37 c19 20 48 50 66 67 24 24 33 43 38
81 4 28 9 58 11 68 3 9 4 17 1 17 -2 0 -61 -50 -131 -112z"/>
<path d="M29 271 l-26 -49 52 -40 52 -41 23 40 22 41 -21 14 c-12 9 -18 20
-15 26 6 9 -41 58 -55 58 -3 0 -18 -22 -32 -49z"/>
<path d="M420 206 c23 -26 25 -38 8 -69 -17 -29 -28 -37 -55 -37 -22 0 -56
-37 -48 -51 3 -4 40 -7 82 -6 l77 2 39 68 40 69 -21 21 c-17 16 -35 21 -82 23
l-61 1 21 -21z"/>
</g>
</svg>
